<?xml version="1.0" encoding="UTF-8"?>
<svg id="Layer_2" data-name="Layer 2" xmlns="http://www.w3.org/2000/svg" viewBox="0 0 959.31 93.51">
  <defs>
    <style>
      .cls-1 {
        fill: #000;
        stroke-width: 0px;
      }
    </style>
  </defs>
  <g id="Layer_1-2" data-name="Layer 1">
    <g>
      <path class="cls-1" d="M229.73,83.83h-70.14V13.69h70.14v14.58h-55.54v40.96h40.96v-13.18h-13.89v-14.6h28.47v42.38Z"/>
      <path class="cls-1" d="M313.91,83.83h-14.58v-27.78h-40.96v27.78h-14.6V13.69h14.6v27.76h40.96V13.69h14.58v70.14Z"/>
      <path class="cls-1" d="M398.11,83.83h-70.14V13.69h70.14v70.14ZM369.64,41.44v-13.18h-27.07v27.07h13.18v-13.89h13.89ZM383.53,69.23v-27.07h-13.18v13.89h-13.89v13.18h27.07Z"/>
      <path class="cls-1" d="M482.28,83.83h-70.14v-14.6h55.56v-13.18h-55.56V13.69h70.14v14.58h-55.54v13.18h55.54v42.38Z"/>
      <path class="cls-1" d="M566.45,28.26h-27.76v55.56h-14.6V28.26h-27.78v-14.58h70.14v14.58Z"/>
      <path class="cls-1" d="M706.76,83.83h-70.14V13.69h14.6v55.54h55.54v14.6Z"/>
      <path class="cls-1" d="M790.93,83.83h-14.58v-13.89h-40.96v13.89h-14.6V13.69h70.14v70.14ZM776.36,55.34v-27.07h-40.96v27.07h40.96Z"/>
      <path class="cls-1" d="M875.11,83.83h-70.14V13.69h70.14v28.47h-13.89v13.18h13.89v28.49ZM860.53,41.44v-13.18h-40.96v13.18h40.96ZM860.53,69.23v-13.18h-40.96v13.18h40.96Z"/>
      <path class="cls-1" d="M959.31,83.83h-70.14v-14.6h55.56v-13.18h-55.56V13.69h70.14v14.58h-55.54v13.18h55.54v42.38Z"/>
    </g>
    <path class="cls-1" d="M81.46,16.36l-2.33-2.34-2.33-2.34-2.33-2.34-2.33-2.34-2.33-2.34-2.33-2.34-2.33-2.34H18.62l-2.33,2.34-2.33,2.34-2.33,2.34-2.33,2.34-2.33,2.34-2.33,2.34-2.33,2.34-2.33,2.34v65.45l2.33,2.34,2.33,2.34,2.33,2.34,2.33,2.34h9.31l2.33-2.34,2.33-2.34,2.33-2.34,2.33-2.34,2.33,2.34,2.33,2.34,2.33,2.34,2.33,2.34h9.31l2.33-2.34,2.33-2.34,2.33-2.34,2.33-2.34,2.33,2.34,2.33,2.34,2.33,2.34,2.33,2.34h9.31l2.33-2.34,2.33-2.34,2.33-2.34,2.33-2.34V18.7l-2.33-2.34ZM51.2,74.8l-2.33,2.34-2.33,2.34h-9.31l-2.33-2.34-2.33-2.34-2.33-2.34-2.33-2.34v-4.68h27.93v4.68l-2.33,2.34-2.33,2.34ZM9.31,42.08v-4.68l2.33-2.34,2.33-2.34,2.33,2.34,2.33,2.34,2.33,2.34,2.33,2.34,2.33,2.34,2.33,2.34,2.33,2.34,2.33,2.34,2.33,2.34,2.33,2.34h-18.62l-2.33-2.34-2.33-2.34-2.33-2.34-2.33-2.34v-4.68ZM74.48,42.08v4.68l-2.33,2.34-2.33,2.34-2.33,2.34-2.33,2.34h-18.62l2.33-2.34,2.33-2.34,2.33-2.34,2.33-2.34,2.33-2.34,2.33-2.34,2.33-2.34,2.33-2.34,2.33-2.34,2.33-2.34,2.33,2.34,2.33,2.34v4.68Z"/>
  </g>
</svg>